<?xml version="1.0" ?><svg viewBox="0 0 63 63" xmlns="http://www.w3.org/2000/svg"><defs><style>.cls-1{fill:#428dff;}</style></defs><title/><g data-name="Layer 67" id="Layer_67"><path class="cls-1" d="M45,46.05a.5.5,0,0,1-.5-.5V23.73l-6.73-7.68H24a2.5,2.5,0,0,0-2.5,2.5v7a.5.5,0,0,1-1,0v-7a3.5,3.5,0,0,1,3.5-3.5H38.18l7.27,8.31V45.55A.5.5,0,0,1,45,46.05ZM43,24a.5.5,0,0,0-.5-.5H39.24a.78.78,0,0,1-.79-.78V18.83a.5.5,0,0,0-1,0v3.86a1.79,1.79,0,0,0,1.79,1.78h3.21A.5.5,0,0,0,43,24ZM22.12,36.89a.54.54,0,0,0,.29.07.56.56,0,0,0,.3-.07.21.21,0,0,0,.13-.19V34.6h.81l1.16,2.15a.39.39,0,0,0,.34.24.61.61,0,0,0,.35-.13.36.36,0,0,0,.16-.28.2.2,0,0,0,0-.11l-1.12-2A1.38,1.38,0,0,0,25.64,33c0-1-.62-1.53-1.84-1.53H22.28a.27.27,0,0,0-.2.07.22.22,0,0,0-.08.18v5A.22.22,0,0,0,22.12,36.89Zm.72-4.7h1c.66,0,1,.3,1,.89s-.33.89-1,.89h-1Zm3.38,4.68a.8.8,0,0,0,.36.09c.16,0,.26-.05.3-.16l.33-1.07h2l.33,1.07c0,.11.15.16.32.16a.76.76,0,0,0,.39-.1c.13-.07.19-.15.19-.24a.25.25,0,0,0,0-.07L28.8,31.69c-.07-.16-.26-.25-.58-.25s-.5.09-.57.27l-1.59,4.86v.06A.29.29,0,0,0,26.22,36.87Zm2-4.34L29,35.1H27.4Zm2.91,4.36a.6.6,0,0,0,.3.07.56.56,0,0,0,.3-.07.22.22,0,0,0,.12-.19V33.06L32.89,35a.3.3,0,0,0,.28.18.37.37,0,0,0,.32-.18l1.07-1.85V36.7a.21.21,0,0,0,.13.19A.54.54,0,0,0,35,37a.56.56,0,0,0,.3-.07.23.23,0,0,0,.13-.19V31.89a.35.35,0,0,0-.12-.3.46.46,0,0,0-.31-.1.68.68,0,0,0-.37.09.86.86,0,0,0-.29.36l-1.14,2-1.12-2a.86.86,0,0,0-.29-.36.74.74,0,0,0-.38-.09.44.44,0,0,0-.3.1.35.35,0,0,0-.12.3V36.7A.22.22,0,0,0,31.09,36.89Z"/></g></svg>